<svg width="20" height="20" viewBox="0 0 20 20" fill="none" xmlns="http://www.w3.org/2000/svg">
<g clip-path="url(#clip0_1_383)">
<path d="M18.8992 7.69511C17.6439 5.64829 14.7885 2.21423 9.77698 2.21423C4.76547 2.21423 1.91008 5.64829 0.654773 7.69511C0.266711 8.32351 0.0611572 9.0477 0.0611572 9.7865C0.0611572 10.5253 0.266711 11.2495 0.654773 11.8779C1.91008 13.9247 4.76547 17.3588 9.77698 17.3588C14.7885 17.3588 17.6439 13.9247 18.8992 11.8779C19.2873 11.2495 19.4928 10.5253 19.4928 9.7865C19.4928 9.0477 19.2873 8.32351 18.8992 7.69511V7.69511ZM17.5192 11.0295C16.4412 12.7846 14.001 15.7382 9.77698 15.7382C5.55297 15.7382 3.11278 12.7846 2.03472 11.0295C1.80416 10.656 1.68204 10.2256 1.68204 9.7865C1.68204 9.34742 1.80416 8.91701 2.03472 8.5435C3.11278 6.78839 5.55297 3.83484 9.77698 3.83484C14.001 3.83484 16.4412 6.78514 17.5192 8.5435C17.7498 8.91701 17.8719 9.34742 17.8719 9.7865C17.8719 10.2256 17.7498 10.656 17.5192 11.0295V11.0295Z" fill="#757575"/>
<path d="M9.77693 5.73499C8.97655 5.73499 8.19415 5.9726 7.52867 6.41779C6.86318 6.86297 6.3445 7.49573 6.03821 8.23605C5.73192 8.97636 5.65178 9.79099 5.80792 10.5769C5.96407 11.3628 6.34948 12.0847 6.91543 12.6513C7.48138 13.218 8.20245 13.6038 8.98744 13.7602C9.77244 13.9165 10.5861 13.8362 11.3256 13.5296C12.065 13.2229 12.697 12.7037 13.1417 12.0374C13.5864 11.3711 13.8237 10.5878 13.8237 9.78649C13.8224 8.71236 13.3956 7.68259 12.637 6.92307C11.8784 6.16354 10.8498 5.73627 9.77693 5.73499V5.73499ZM9.77693 12.2174C9.2967 12.2174 8.82726 12.0748 8.42797 11.8077C8.02868 11.5406 7.71747 11.1609 7.5337 10.7168C7.34992 10.2726 7.30184 9.7838 7.39552 9.31225C7.48921 8.8407 7.72046 8.40755 8.06003 8.06758C8.3996 7.72762 8.83224 7.49609 9.30324 7.4023C9.77423 7.3085 10.2624 7.35664 10.7061 7.54063C11.1498 7.72462 11.529 8.03619 11.7958 8.43595C12.0626 8.83571 12.205 9.30571 12.205 9.78649C12.205 10.4312 11.9492 11.0495 11.4938 11.5054C11.0385 11.9613 10.4209 12.2174 9.77693 12.2174Z" fill="#757575"/>
</g>
<defs>
<clipPath id="clip0_1_383">
<rect width="19.4245" height="19.4472" fill="white" transform="translate(0.0647278 0.0628662)"/>
</clipPath>
</defs>
</svg>
