<svg width="58" height="29" viewBox="0 0 58 29" fill="none" xmlns="http://www.w3.org/2000/svg">
<rect width="58" height="29" rx="2" fill="#7AC751"/>
<path d="M18.283 8.69233L13.6354 13.3399C13.2748 13.7024 13.2748 14.288 13.6354 14.6505L18.283 19.2981C18.6306 19.5964 19.1446 19.5964 19.4923 19.2981C19.8818 18.9644 19.9273 18.3769 19.5936 17.9875L15.606 13.9998L19.5936 10.003C19.9543 9.64042 19.9543 9.05486 19.5936 8.69233C19.2311 8.33167 18.6455 8.33167 18.283 8.69233Z" fill="white"/>
<path d="M39.717 8.69233L44.3646 13.3399C44.7252 13.7024 44.7252 14.288 44.3646 14.6505L39.717 19.2981C39.3694 19.5964 38.8554 19.5964 38.5077 19.2981C38.1182 18.9644 38.0727 18.3769 38.4064 17.9875L42.394 13.9998L38.4064 10.003C38.0457 9.64042 38.0457 9.05486 38.4064 8.69233C38.7689 8.33168 39.3545 8.33168 39.717 8.69233Z" fill="white"/>
</svg>
