<svg width="24" height="24" viewBox="0 0 24 24" fill="none" xmlns="http://www.w3.org/2000/svg">
<path d="M11.777 21.1556L3.53618 12.9051C2.44325 11.811 1.82919 10.3271 1.8291 8.77973C1.82901 7.23237 2.44289 5.74836 3.53569 4.65414C4.62849 3.55993 6.1107 2.94516 7.65625 2.94507C9.20179 2.94498 10.6841 3.55958 11.777 4.65366C12.8705 3.56081 14.3524 2.94702 15.8974 2.94702C17.4425 2.94702 18.9244 3.56081 20.0178 4.65366V4.65366C21.1089 5.74865 21.7217 7.2322 21.7217 8.7789C21.7217 10.3256 21.1089 11.8092 20.0178 12.9041L11.777 21.1556ZM7.6561 4.88994C6.88767 4.88991 6.13648 5.11805 5.49756 5.54548C4.85863 5.97292 4.36068 6.58046 4.06667 7.29126C3.77266 8.00206 3.6958 8.78419 3.84583 9.53873C3.99585 10.2933 4.36601 10.9863 4.90949 11.5302L11.777 18.4058L18.6445 11.5302C19.039 11.1441 19.3468 10.6783 19.5474 10.1638C19.7481 9.64933 19.837 9.09797 19.8082 8.54641C19.7795 7.99486 19.6337 7.45576 19.3806 6.96499C19.1276 6.47422 18.773 6.04303 18.3406 5.70013C17.9081 5.35722 17.4077 5.11046 16.8726 4.97626C16.3374 4.84206 15.7799 4.8235 15.237 4.92182C14.6942 5.02014 14.1785 5.23308 13.7242 5.54647C13.27 5.85986 12.8876 6.26652 12.6025 6.73937L11.777 8.07345L10.9515 6.73937C10.6107 6.17057 10.1273 5.70085 9.54925 5.37678C8.9712 5.0527 8.31858 4.88555 7.6561 4.89189V4.88994Z" fill="#757575"/>
</svg>
