<svg width="106" height="531" viewBox="0 0 106 531" fill="none" xmlns="http://www.w3.org/2000/svg">
<g filter="url(#filter0_d_1_326)">
<ellipse cx="52.777" cy="50.8492" rx="19.4245" ry="19.4472" fill="white"/>
</g>
<path d="M52.777 527.829L44.5362 517.85C43.4432 516.527 42.8292 514.732 42.8291 512.861C42.829 510.989 43.4429 509.194 44.5357 507.871C45.6285 506.547 47.1107 505.804 48.6562 505.803C50.2018 505.803 51.6841 506.547 52.777 507.87C53.8704 506.548 55.3524 505.806 56.8974 505.806C58.4424 505.806 59.9244 506.548 61.0178 507.87V507.87C62.1089 509.194 62.7216 510.989 62.7216 512.86C62.7216 514.73 62.1089 516.525 61.0178 517.849L52.777 527.829ZM48.6561 508.156C47.8877 508.156 47.1365 508.432 46.4976 508.949C45.8586 509.466 45.3607 510.2 45.0667 511.06C44.7727 511.92 44.6958 512.866 44.8458 513.779C44.9958 514.691 45.366 515.529 45.9095 516.187L52.777 524.503L59.6445 516.187C60.039 515.72 60.3467 515.157 60.5474 514.535C60.748 513.912 60.8369 513.245 60.8082 512.578C60.7794 511.911 60.6337 511.259 60.3806 510.666C60.1276 510.072 59.773 509.55 59.3406 509.136C58.9081 508.721 58.4077 508.422 57.8725 508.26C57.3374 508.098 56.7799 508.075 56.237 508.194C55.6942 508.313 55.1785 508.571 54.7242 508.95C54.27 509.329 53.8876 509.821 53.6025 510.393L52.777 512.006L51.9515 510.393C51.6107 509.705 51.1273 509.137 50.5492 508.745C49.9712 508.353 49.3186 508.15 48.6561 508.158V508.156Z" fill="#757575"/>
<g filter="url(#filter1_d_1_326)">
<ellipse cx="52.777" cy="98.4948" rx="19.4245" ry="19.4472" fill="white"/>
</g>
<g clip-path="url(#clip0_1_326)">
<path d="M61.6799 104.167H60.0612V102.546C60.0612 102.331 59.9759 102.125 59.8241 101.973C59.6723 101.821 59.4665 101.736 59.2518 101.736C59.0372 101.736 58.8313 101.821 58.6795 101.973C58.5277 102.125 58.4425 102.331 58.4425 102.546V104.167H56.8238C56.6091 104.167 56.4032 104.252 56.2515 104.404C56.0997 104.556 56.0144 104.762 56.0144 104.977C56.0144 105.192 56.0997 105.398 56.2515 105.55C56.4032 105.702 56.6091 105.787 56.8238 105.787H58.4425V107.408C58.4425 107.623 58.5277 107.829 58.6795 107.981C58.8313 108.133 59.0372 108.218 59.2518 108.218C59.4665 108.218 59.6723 108.133 59.8241 107.981C59.9759 107.829 60.0612 107.623 60.0612 107.408V105.787H61.6799C61.8945 105.787 62.1004 105.702 62.2522 105.55C62.404 105.398 62.4892 105.192 62.4892 104.977C62.4892 104.762 62.404 104.556 62.2522 104.404C62.1004 104.252 61.8945 104.167 61.6799 104.167Z" fill="#757575"/>
<path d="M60.0612 93.6329H57.6331C57.6331 92.3435 57.1215 91.1069 56.2108 90.1951C55.3001 89.2833 54.0649 88.7711 52.777 88.7711C51.4891 88.7711 50.2539 89.2833 49.3432 90.1951C48.4325 91.1069 47.9209 92.3435 47.9209 93.6329H45.4928C44.8489 93.6329 44.2313 93.889 43.7759 94.3449C43.3206 94.8008 43.0648 95.4191 43.0648 96.0638V104.167C43.066 105.241 43.4928 106.271 44.2514 107.03C45.0101 107.79 46.0386 108.217 47.1115 108.218H54.3957C54.6103 108.218 54.8162 108.133 54.968 107.981C55.1198 107.829 55.205 107.623 55.205 107.408C55.205 107.193 55.1198 106.987 54.968 106.835C54.8162 106.683 54.6103 106.598 54.3957 106.598H47.1115C46.4676 106.598 45.85 106.342 45.3946 105.886C44.9393 105.43 44.6835 104.812 44.6835 104.167V96.0638C44.6835 95.8489 44.7687 95.6428 44.9205 95.4909C45.0723 95.3389 45.2782 95.2535 45.4928 95.2535H47.9209V96.8741C47.9209 97.089 48.0061 97.2951 48.1579 97.4471C48.3097 97.5991 48.5156 97.6844 48.7302 97.6844C48.9449 97.6844 49.1507 97.5991 49.3025 97.4471C49.4543 97.2951 49.5396 97.089 49.5396 96.8741V95.2535H56.0144V96.8741C56.0144 97.089 56.0997 97.2951 56.2515 97.4471C56.4032 97.5991 56.6091 97.6844 56.8238 97.6844C57.0384 97.6844 57.2443 97.5991 57.3961 97.4471C57.5478 97.2951 57.6331 97.089 57.6331 96.8741V95.2535H60.0612C60.2758 95.2535 60.4817 95.3389 60.6335 95.4909C60.7852 95.6428 60.8705 95.8489 60.8705 96.0638V100.115C60.8705 100.33 60.9558 100.536 61.1076 100.688C61.2594 100.84 61.4652 100.926 61.6799 100.926C61.8945 100.926 62.1004 100.84 62.2522 100.688C62.4039 100.536 62.4892 100.33 62.4892 100.115V96.0638C62.4892 95.4191 62.2334 94.8008 61.7781 94.3449C61.3227 93.889 60.7051 93.6329 60.0612 93.6329ZM49.5396 93.6329C49.5396 92.7733 49.8807 91.9489 50.4878 91.341C51.0949 90.7332 51.9184 90.3917 52.777 90.3917C53.6356 90.3917 54.4591 90.7332 55.0662 91.341C55.6733 91.9489 56.0144 92.7733 56.0144 93.6329H49.5396Z" fill="#757575"/>
</g>
<g filter="url(#filter2_d_1_326)">
<ellipse cx="52.777" cy="146.141" rx="19.4245" ry="19.4472" fill="white"/>
</g>
<g clip-path="url(#clip1_1_326)">
<path d="M46.8647 140.437C47.6252 139.617 48.5092 139 49.451 138.576C52.5807 137.167 56.3898 137.894 58.7577 140.599L60.3933 139.198C60.4842 139.12 60.6301 139.192 60.6388 139.314L61.0456 144.802C61.0506 144.893 60.9662 144.965 60.8801 144.944L55.5301 143.696C55.4083 143.665 55.3626 143.513 55.4534 143.435L57.0858 142.037C55.521 140.265 53.1035 139.679 50.9755 140.36C50.171 140.616 49.4104 141.048 48.7562 141.67C47.8567 142.525 47.2929 143.622 47.0695 144.781C46.9518 145.4 46.3455 145.795 45.7327 145.651C45.1495 145.514 44.7854 144.937 44.9008 144.348C45.1725 142.917 45.8297 141.555 46.8647 140.437V140.437ZM58.3206 147.474C58.1032 148.634 57.5362 149.733 56.6339 150.585C55.9764 151.21 55.213 151.639 54.4146 151.895C52.2866 152.576 49.8659 151.993 48.3043 150.218L49.9367 148.82C50.0275 148.742 49.979 148.587 49.86 148.559L44.5073 147.308C44.4179 147.289 44.3335 147.361 44.3417 147.45L44.7458 152.935C44.7572 153.06 44.9003 153.129 44.9912 153.051L46.6269 151.65C48.9915 154.357 52.8033 155.088 55.9336 153.672C56.8754 153.248 57.7566 152.628 58.5199 151.811C59.5576 150.697 60.2148 149.335 60.4866 147.903C60.5992 147.312 60.2378 146.738 59.6547 146.601C59.0446 146.46 58.4383 146.855 58.3206 147.474V147.474Z" fill="#757575" stroke="white" stroke-width="0.3"/>
</g>
<g filter="url(#filter3_d_1_326)">
<ellipse cx="52.777" cy="193.786" rx="19.4245" ry="19.4472" fill="white"/>
</g>
<g clip-path="url(#clip2_1_326)">
<path d="M61.8992 191.695C60.6439 189.648 57.7885 186.214 52.777 186.214C47.7655 186.214 44.9101 189.648 43.6548 191.695C43.2667 192.323 43.0612 193.048 43.0612 193.786C43.0612 194.525 43.2667 195.249 43.6548 195.878C44.9101 197.925 47.7655 201.359 52.777 201.359C57.7885 201.359 60.6439 197.925 61.8992 195.878C62.2873 195.249 62.4928 194.525 62.4928 193.786C62.4928 193.048 62.2873 192.323 61.8992 191.695V191.695ZM60.5192 195.029C59.4412 196.785 57.001 199.738 52.777 199.738C48.553 199.738 46.1128 196.785 45.0347 195.029C44.8042 194.656 44.682 194.226 44.682 193.786C44.682 193.347 44.8042 192.917 45.0347 192.543C46.1128 190.788 48.553 187.835 52.777 187.835C57.001 187.835 59.4412 190.785 60.5192 192.543C60.7498 192.917 60.8719 193.347 60.8719 193.786C60.8719 194.226 60.7498 194.656 60.5192 195.029V195.029Z" fill="#757575"/>
<path d="M52.7769 189.735C51.9766 189.735 51.1942 189.973 50.5287 190.418C49.8632 190.863 49.3445 191.496 49.0382 192.236C48.7319 192.976 48.6518 193.791 48.8079 194.577C48.9641 195.363 49.3495 196.085 49.9154 196.651C50.4814 197.218 51.2024 197.604 51.9874 197.76C52.7724 197.916 53.5861 197.836 54.3256 197.53C55.065 197.223 55.697 196.704 56.1417 196.037C56.5864 195.371 56.8237 194.588 56.8237 193.786C56.8224 192.712 56.3956 191.683 55.637 190.923C54.8784 190.163 53.8498 189.736 52.7769 189.735V189.735ZM52.7769 196.217C52.2967 196.217 51.8273 196.075 51.428 195.808C51.0287 195.541 50.7175 195.161 50.5337 194.717C50.3499 194.273 50.3018 193.784 50.3955 193.312C50.4892 192.841 50.7205 192.407 51.06 192.068C51.3996 191.728 51.8322 191.496 52.3032 191.402C52.7742 191.308 53.2624 191.357 53.7061 191.541C54.1498 191.725 54.529 192.036 54.7958 192.436C55.0626 192.836 55.205 193.306 55.205 193.786C55.205 194.431 54.9492 195.049 54.4938 195.505C54.0385 195.961 53.4209 196.217 52.7769 196.217Z" fill="#757575"/>
</g>
<defs>
<filter id="filter0_d_1_326" x="0.352539" y="0.401978" width="104.849" height="104.894" filterUnits="userSpaceOnUse" color-interpolation-filters="sRGB">
<feFlood flood-opacity="0" result="BackgroundImageFix"/>
<feColorMatrix in="SourceAlpha" type="matrix" values="0 0 0 0 0 0 0 0 0 0 0 0 0 0 0 0 0 0 127 0" result="hardAlpha"/>
<feOffset dy="2"/>
<feGaussianBlur stdDeviation="16.5"/>
<feComposite in2="hardAlpha" operator="out"/>
<feColorMatrix type="matrix" values="0 0 0 0 0 0 0 0 0 0 0 0 0 0 0 0 0 0 0.09 0"/>
<feBlend mode="normal" in2="BackgroundImageFix" result="effect1_dropShadow_1_326"/>
<feBlend mode="normal" in="SourceGraphic" in2="effect1_dropShadow_1_326" result="shape"/>
</filter>
<filter id="filter1_d_1_326" x="0.352539" y="48.0476" width="104.849" height="104.894" filterUnits="userSpaceOnUse" color-interpolation-filters="sRGB">
<feFlood flood-opacity="0" result="BackgroundImageFix"/>
<feColorMatrix in="SourceAlpha" type="matrix" values="0 0 0 0 0 0 0 0 0 0 0 0 0 0 0 0 0 0 127 0" result="hardAlpha"/>
<feOffset dy="2"/>
<feGaussianBlur stdDeviation="16.5"/>
<feComposite in2="hardAlpha" operator="out"/>
<feColorMatrix type="matrix" values="0 0 0 0 0 0 0 0 0 0 0 0 0 0 0 0 0 0 0.09 0"/>
<feBlend mode="normal" in2="BackgroundImageFix" result="effect1_dropShadow_1_326"/>
<feBlend mode="normal" in="SourceGraphic" in2="effect1_dropShadow_1_326" result="shape"/>
</filter>
<filter id="filter2_d_1_326" x="0.352539" y="95.6934" width="104.849" height="104.894" filterUnits="userSpaceOnUse" color-interpolation-filters="sRGB">
<feFlood flood-opacity="0" result="BackgroundImageFix"/>
<feColorMatrix in="SourceAlpha" type="matrix" values="0 0 0 0 0 0 0 0 0 0 0 0 0 0 0 0 0 0 127 0" result="hardAlpha"/>
<feOffset dy="2"/>
<feGaussianBlur stdDeviation="16.5"/>
<feComposite in2="hardAlpha" operator="out"/>
<feColorMatrix type="matrix" values="0 0 0 0 0 0 0 0 0 0 0 0 0 0 0 0 0 0 0.09 0"/>
<feBlend mode="normal" in2="BackgroundImageFix" result="effect1_dropShadow_1_326"/>
<feBlend mode="normal" in="SourceGraphic" in2="effect1_dropShadow_1_326" result="shape"/>
</filter>
<filter id="filter3_d_1_326" x="0.352539" y="143.339" width="104.849" height="104.894" filterUnits="userSpaceOnUse" color-interpolation-filters="sRGB">
<feFlood flood-opacity="0" result="BackgroundImageFix"/>
<feColorMatrix in="SourceAlpha" type="matrix" values="0 0 0 0 0 0 0 0 0 0 0 0 0 0 0 0 0 0 127 0" result="hardAlpha"/>
<feOffset dy="2"/>
<feGaussianBlur stdDeviation="16.5"/>
<feComposite in2="hardAlpha" operator="out"/>
<feColorMatrix type="matrix" values="0 0 0 0 0 0 0 0 0 0 0 0 0 0 0 0 0 0 0.09 0"/>
<feBlend mode="normal" in2="BackgroundImageFix" result="effect1_dropShadow_1_326"/>
<feBlend mode="normal" in="SourceGraphic" in2="effect1_dropShadow_1_326" result="shape"/>
</filter>
<clipPath id="clip0_1_326">
<rect width="19.4245" height="19.4472" fill="white" transform="translate(43.0648 88.7711)"/>
</clipPath>
<clipPath id="clip1_1_326">
<rect width="20.9964" height="20.9926" fill="white" transform="matrix(0.649713 0.76018 -0.759427 0.650592 53.8421 131.314)"/>
</clipPath>
<clipPath id="clip2_1_326">
<rect width="19.4245" height="19.4472" fill="white" transform="translate(43.0648 184.063)"/>
</clipPath>
</defs>
</svg>
