<svg width="106" height="790" viewBox="0 0 106 790" fill="none" xmlns="http://www.w3.org/2000/svg">
<g filter="url(#filter0_d_1_767)">
<ellipse cx="52.777" cy="50.8492" rx="19.4245" ry="19.4472" fill="white"/>
</g>
<path d="M52.777 786.583L44.5362 776.604C43.4432 775.281 42.8292 773.486 42.8291 771.614C42.829 769.743 43.4429 767.948 44.5357 766.624C45.6285 765.301 47.1107 764.557 48.6562 764.557C50.2018 764.557 51.6841 765.3 52.777 766.624C53.8704 765.302 55.3524 764.56 56.8974 764.56C58.4424 764.56 59.9244 765.302 61.0178 766.624V766.624C62.1089 767.948 62.7216 769.743 62.7216 771.613C62.7216 773.484 62.1089 775.278 61.0178 776.603L52.777 786.583ZM48.6561 766.91C47.8877 766.91 47.1365 767.185 46.4976 767.702C45.8586 768.219 45.3607 768.954 45.0667 769.814C44.7727 770.674 44.6958 771.62 44.8458 772.532C44.9958 773.445 45.366 774.283 45.9095 774.941L52.777 783.257L59.6445 774.941C60.039 774.474 60.3467 773.911 60.5474 773.288C60.748 772.666 60.8369 771.999 60.8082 771.332C60.7794 770.665 60.6337 770.013 60.3806 769.419C60.1276 768.826 59.773 768.304 59.3406 767.889C58.9081 767.475 58.4077 767.176 57.8725 767.014C57.3374 766.852 56.7799 766.829 56.237 766.948C55.6942 767.067 55.1785 767.325 54.7242 767.704C54.27 768.083 53.8876 768.575 53.6025 769.146L52.777 770.76L51.9515 769.146C51.6107 768.458 51.1273 767.89 50.5492 767.498C49.9712 767.106 49.3186 766.904 48.6561 766.912V766.91Z" fill="#757575"/>
<g filter="url(#filter1_d_1_767)">
<ellipse cx="52.777" cy="98.4949" rx="19.4245" ry="19.4472" fill="#7AC751"/>
</g>
<g clip-path="url(#clip0_1_767)">
<path d="M61.6798 104.167H60.0611V102.546C60.0611 102.331 59.9758 102.125 59.8241 101.973C59.6723 101.821 59.4664 101.736 59.2518 101.736C59.0371 101.736 58.8312 101.821 58.6795 101.973C58.5277 102.125 58.4424 102.331 58.4424 102.546V104.167H56.8237C56.609 104.167 56.4032 104.252 56.2514 104.404C56.0996 104.556 56.0143 104.762 56.0143 104.977C56.0143 105.192 56.0996 105.398 56.2514 105.55C56.4032 105.702 56.609 105.787 56.8237 105.787H58.4424V107.408C58.4424 107.623 58.5277 107.829 58.6795 107.981C58.8312 108.133 59.0371 108.218 59.2518 108.218C59.4664 108.218 59.6723 108.133 59.8241 107.981C59.9758 107.829 60.0611 107.623 60.0611 107.408V105.787H61.6798C61.8945 105.787 62.1003 105.702 62.2521 105.55C62.4039 105.398 62.4892 105.192 62.4892 104.977C62.4892 104.762 62.4039 104.556 62.2521 104.404C62.1003 104.252 61.8945 104.167 61.6798 104.167Z" fill="white"/>
<path d="M60.0611 93.633H57.6331C57.6331 92.3435 57.1214 91.1069 56.2108 90.1951C55.3001 89.2834 54.0649 88.7711 52.777 88.7711C51.489 88.7711 50.2539 89.2834 49.3432 90.1951C48.4325 91.1069 47.9208 92.3435 47.9208 93.633H45.4928C44.8488 93.633 44.2312 93.8891 43.7759 94.345C43.3205 94.8008 43.0647 95.4191 43.0647 96.0639V104.167C43.066 105.241 43.4928 106.271 44.2514 107.03C45.0101 107.79 46.0386 108.217 47.1115 108.218H54.3957C54.6103 108.218 54.8162 108.133 54.968 107.981C55.1197 107.829 55.205 107.623 55.205 107.408C55.205 107.193 55.1197 106.987 54.968 106.835C54.8162 106.683 54.6103 106.598 54.3957 106.598H47.1115C46.4675 106.598 45.8499 106.342 45.3946 105.886C44.9392 105.43 44.6834 104.812 44.6834 104.167V96.0639C44.6834 95.849 44.7687 95.6429 44.9205 95.4909C45.0723 95.3389 45.2781 95.2536 45.4928 95.2536H47.9208V96.8742C47.9208 97.0891 48.0061 97.2952 48.1579 97.4471C48.3097 97.5991 48.5155 97.6845 48.7302 97.6845C48.9448 97.6845 49.1507 97.5991 49.3025 97.4471C49.4543 97.2952 49.5395 97.0891 49.5395 96.8742V95.2536H56.0144V96.8742C56.0144 97.0891 56.0996 97.2952 56.2514 97.4471C56.4032 97.5991 56.6091 97.6845 56.8237 97.6845C57.0384 97.6845 57.2442 97.5991 57.396 97.4471C57.5478 97.2952 57.6331 97.0891 57.6331 96.8742V95.2536H60.0611C60.2758 95.2536 60.4816 95.3389 60.6334 95.4909C60.7852 95.6429 60.8705 95.849 60.8705 96.0639V100.115C60.8705 100.33 60.9558 100.536 61.1075 100.688C61.2593 100.84 61.4652 100.926 61.6798 100.926C61.8945 100.926 62.1004 100.84 62.2521 100.688C62.4039 100.536 62.4892 100.33 62.4892 100.115V96.0639C62.4892 95.4191 62.2334 94.8008 61.778 94.345C61.3227 93.8891 60.7051 93.633 60.0611 93.633ZM49.5395 93.633C49.5395 92.7733 49.8806 91.9489 50.4878 91.3411C51.0949 90.7332 51.9183 90.3918 52.777 90.3918C53.6356 90.3918 54.459 90.7332 55.0662 91.3411C55.6733 91.9489 56.0144 92.7733 56.0144 93.633H49.5395Z" fill="white"/>
</g>
<g filter="url(#filter2_d_1_767)">
<ellipse cx="52.777" cy="146.141" rx="19.4245" ry="19.4472" fill="white"/>
</g>
<g clip-path="url(#clip1_1_767)">
<path d="M46.8646 140.437C47.6251 139.617 48.5091 139 49.4509 138.576C52.5807 137.167 56.3897 137.894 58.7576 140.599L60.3933 139.198C60.4842 139.12 60.63 139.192 60.6387 139.314L61.0455 144.802C61.0505 144.893 60.9662 144.965 60.88 144.944L55.5301 143.696C55.4082 143.665 55.3625 143.513 55.4534 143.435L57.0858 142.037C55.5209 140.265 53.1035 139.679 50.9755 140.36C50.171 140.616 49.4104 141.048 48.7561 141.67C47.8566 142.525 47.2928 143.622 47.0695 144.781C46.9517 145.4 46.3454 145.795 45.7326 145.651C45.1494 145.514 44.7853 144.937 44.9007 144.348C45.1725 142.917 45.8296 141.555 46.8646 140.437V140.437ZM58.3205 147.474C58.1032 148.634 57.5361 149.733 56.6338 150.585C55.9764 151.21 55.213 151.639 54.4145 151.895C52.2865 152.576 49.8658 151.993 48.3042 150.218L49.9366 148.82C50.0275 148.742 49.979 148.587 49.8599 148.559L44.5072 147.308C44.4178 147.289 44.3334 147.361 44.3417 147.45L44.7457 152.935C44.7572 153.06 44.9003 153.129 44.9911 153.051L46.6268 151.65C48.9915 154.357 52.8033 155.088 55.9335 153.672C56.8753 153.248 57.7565 152.628 58.5198 151.811C59.5576 150.697 60.2147 149.335 60.4865 147.903C60.5991 147.312 60.2378 146.738 59.6546 146.601C59.0446 146.46 58.4382 146.855 58.3205 147.474V147.474Z" fill="#757575" stroke="white" stroke-width="0.3"/>
</g>
<g filter="url(#filter3_d_1_767)">
<ellipse cx="52.777" cy="193.786" rx="19.4245" ry="19.4472" fill="white"/>
</g>
<g clip-path="url(#clip2_1_767)">
<path d="M61.8992 191.695C60.6439 189.648 57.7885 186.214 52.777 186.214C47.7655 186.214 44.9101 189.648 43.6548 191.695C43.2667 192.323 43.0612 193.048 43.0612 193.786C43.0612 194.525 43.2667 195.249 43.6548 195.878C44.9101 197.925 47.7655 201.359 52.777 201.359C57.7885 201.359 60.6439 197.925 61.8992 195.878C62.2873 195.249 62.4928 194.525 62.4928 193.786C62.4928 193.048 62.2873 192.323 61.8992 191.695V191.695ZM60.5192 195.029C59.4412 196.785 57.001 199.738 52.777 199.738C48.553 199.738 46.1128 196.785 45.0347 195.029C44.8042 194.656 44.682 194.225 44.682 193.786C44.682 193.347 44.8042 192.917 45.0347 192.543C46.1128 190.788 48.553 187.835 52.777 187.835C57.001 187.835 59.4412 190.785 60.5192 192.543C60.7498 192.917 60.8719 193.347 60.8719 193.786C60.8719 194.225 60.7498 194.656 60.5192 195.029V195.029Z" fill="#757575"/>
<path d="M52.7769 189.735C51.9766 189.735 51.1942 189.973 50.5287 190.418C49.8632 190.863 49.3445 191.496 49.0382 192.236C48.7319 192.976 48.6518 193.791 48.8079 194.577C48.9641 195.363 49.3495 196.085 49.9154 196.651C50.4814 197.218 51.2024 197.604 51.9874 197.76C52.7724 197.916 53.5861 197.836 54.3256 197.53C55.065 197.223 55.697 196.704 56.1417 196.037C56.5864 195.371 56.8237 194.588 56.8237 193.786C56.8224 192.712 56.3956 191.683 55.637 190.923C54.8784 190.163 53.8498 189.736 52.7769 189.735V189.735ZM52.7769 196.217C52.2967 196.217 51.8273 196.075 51.428 195.808C51.0287 195.541 50.7175 195.161 50.5337 194.717C50.3499 194.272 50.3018 193.784 50.3955 193.312C50.4892 192.841 50.7205 192.407 51.06 192.067C51.3996 191.728 51.8322 191.496 52.3032 191.402C52.7742 191.308 53.2624 191.357 53.7061 191.541C54.1498 191.725 54.529 192.036 54.7958 192.436C55.0626 192.836 55.205 193.306 55.205 193.786C55.205 194.431 54.9492 195.049 54.4938 195.505C54.0385 195.961 53.4209 196.217 52.7769 196.217Z" fill="#757575"/>
</g>
<defs>
<filter id="filter0_d_1_767" x="0.352539" y="0.402008" width="104.849" height="104.894" filterUnits="userSpaceOnUse" color-interpolation-filters="sRGB">
<feFlood flood-opacity="0" result="BackgroundImageFix"/>
<feColorMatrix in="SourceAlpha" type="matrix" values="0 0 0 0 0 0 0 0 0 0 0 0 0 0 0 0 0 0 127 0" result="hardAlpha"/>
<feOffset dy="2"/>
<feGaussianBlur stdDeviation="16.5"/>
<feComposite in2="hardAlpha" operator="out"/>
<feColorMatrix type="matrix" values="0 0 0 0 0 0 0 0 0 0 0 0 0 0 0 0 0 0 0.09 0"/>
<feBlend mode="normal" in2="BackgroundImageFix" result="effect1_dropShadow_1_767"/>
<feBlend mode="normal" in="SourceGraphic" in2="effect1_dropShadow_1_767" result="shape"/>
</filter>
<filter id="filter1_d_1_767" x="0.352509" y="48.0476" width="104.849" height="104.894" filterUnits="userSpaceOnUse" color-interpolation-filters="sRGB">
<feFlood flood-opacity="0" result="BackgroundImageFix"/>
<feColorMatrix in="SourceAlpha" type="matrix" values="0 0 0 0 0 0 0 0 0 0 0 0 0 0 0 0 0 0 127 0" result="hardAlpha"/>
<feOffset dy="2"/>
<feGaussianBlur stdDeviation="16.5"/>
<feComposite in2="hardAlpha" operator="out"/>
<feColorMatrix type="matrix" values="0 0 0 0 0 0 0 0 0 0 0 0 0 0 0 0 0 0 0.09 0"/>
<feBlend mode="normal" in2="BackgroundImageFix" result="effect1_dropShadow_1_767"/>
<feBlend mode="normal" in="SourceGraphic" in2="effect1_dropShadow_1_767" result="shape"/>
</filter>
<filter id="filter2_d_1_767" x="0.352509" y="95.6934" width="104.849" height="104.894" filterUnits="userSpaceOnUse" color-interpolation-filters="sRGB">
<feFlood flood-opacity="0" result="BackgroundImageFix"/>
<feColorMatrix in="SourceAlpha" type="matrix" values="0 0 0 0 0 0 0 0 0 0 0 0 0 0 0 0 0 0 127 0" result="hardAlpha"/>
<feOffset dy="2"/>
<feGaussianBlur stdDeviation="16.5"/>
<feComposite in2="hardAlpha" operator="out"/>
<feColorMatrix type="matrix" values="0 0 0 0 0 0 0 0 0 0 0 0 0 0 0 0 0 0 0.09 0"/>
<feBlend mode="normal" in2="BackgroundImageFix" result="effect1_dropShadow_1_767"/>
<feBlend mode="normal" in="SourceGraphic" in2="effect1_dropShadow_1_767" result="shape"/>
</filter>
<filter id="filter3_d_1_767" x="0.352509" y="143.339" width="104.849" height="104.894" filterUnits="userSpaceOnUse" color-interpolation-filters="sRGB">
<feFlood flood-opacity="0" result="BackgroundImageFix"/>
<feColorMatrix in="SourceAlpha" type="matrix" values="0 0 0 0 0 0 0 0 0 0 0 0 0 0 0 0 0 0 127 0" result="hardAlpha"/>
<feOffset dy="2"/>
<feGaussianBlur stdDeviation="16.5"/>
<feComposite in2="hardAlpha" operator="out"/>
<feColorMatrix type="matrix" values="0 0 0 0 0 0 0 0 0 0 0 0 0 0 0 0 0 0 0.09 0"/>
<feBlend mode="normal" in2="BackgroundImageFix" result="effect1_dropShadow_1_767"/>
<feBlend mode="normal" in="SourceGraphic" in2="effect1_dropShadow_1_767" result="shape"/>
</filter>
<clipPath id="clip0_1_767">
<rect width="19.4245" height="19.4472" fill="white" transform="translate(43.0647 88.7711)"/>
</clipPath>
<clipPath id="clip1_1_767">
<rect width="20.9964" height="20.9926" fill="white" transform="matrix(0.649713 0.76018 -0.759427 0.650592 53.8421 131.314)"/>
</clipPath>
<clipPath id="clip2_1_767">
<rect width="19.4245" height="19.4472" fill="white" transform="translate(43.0647 184.063)"/>
</clipPath>
</defs>
</svg>
