<svg width="17" height="17" viewBox="0 0 17 17" fill="none" xmlns="http://www.w3.org/2000/svg">
<path fill-rule="evenodd" clip-rule="evenodd" d="M7.18212 1.46509C7.70082 1.46509 8.19782 1.67336 8.56466 2.04467L14.1415 7.6894C14.3232 7.87317 14.4673 8.09138 14.5656 8.33154C14.6639 8.57171 14.7145 8.82913 14.7145 9.0891C14.7145 9.34907 14.6639 9.60649 14.5656 9.84666C14.4673 10.0868 14.3232 10.305 14.1415 10.4888L10.481 14.1938C10.2994 14.3777 10.0839 14.5236 9.84659 14.6231C9.60931 14.7226 9.35499 14.7738 9.09815 14.7738C8.84131 14.7738 8.58698 14.7226 8.3497 14.6231C8.11243 14.5236 7.89685 14.3777 7.71528 14.1938L2.13845 8.54912C1.9569 8.36534 1.81289 8.14718 1.71464 7.90707C1.61639 7.66697 1.56583 7.40963 1.56584 7.14974V3.44404C1.56584 2.91919 1.77183 2.41583 2.13849 2.04471C2.50515 1.67358 3.00245 1.46509 3.52099 1.46509H7.18212ZM7.18212 2.79592H3.52099C3.35116 2.79592 3.1883 2.8642 3.06821 2.98575C2.94813 3.1073 2.88067 3.27215 2.88067 3.44404V7.14974C2.88067 7.32142 2.94838 7.48645 3.06803 7.60822L8.64486 13.2529C8.89468 13.5058 9.30096 13.5058 9.55078 13.2529L13.2119 9.54724C13.2714 9.48705 13.3186 9.41558 13.3508 9.33691C13.3831 9.25825 13.3996 9.17392 13.3996 9.08877C13.3996 9.00361 13.3831 8.91929 13.3508 8.84062C13.3186 8.76196 13.2714 8.69049 13.2119 8.6303L7.63508 2.98557C7.5755 2.92531 7.50477 2.87755 7.42693 2.84501C7.34909 2.81247 7.26568 2.79579 7.18146 2.79592H7.18212ZM5.51032 4.12676C5.85903 4.12676 6.19346 4.26697 6.44004 4.51655C6.68662 4.76613 6.82514 5.10463 6.82514 5.45759C6.82514 5.81055 6.68662 6.14905 6.44004 6.39863C6.19346 6.64821 5.85903 6.78842 5.51032 6.78842C5.1616 6.78842 4.82717 6.64821 4.5806 6.39863C4.33402 6.14905 4.19549 5.81055 4.19549 5.45759C4.19549 5.10463 4.33402 4.76613 4.5806 4.51655C4.82717 4.26697 5.1616 4.12676 5.51032 4.12676V4.12676Z" fill="#7AC751"/>
</svg>
