<svg width="17" height="17" viewBox="0 0 17 17" fill="none" xmlns="http://www.w3.org/2000/svg">
<path fill-rule="evenodd" clip-rule="evenodd" d="M7.20942 1.79126C7.72811 1.79126 8.22512 1.99954 8.59195 2.37084L14.1688 8.01557C14.3504 8.19935 14.4946 8.41755 14.5929 8.65772C14.6912 8.89788 14.7418 9.1553 14.7418 9.41527C14.7418 9.67524 14.6912 9.93266 14.5929 10.1728C14.4946 10.413 14.3504 10.6312 14.1688 10.815L10.5083 14.52C10.3267 14.7039 10.1112 14.8498 9.87389 14.9493C9.63661 15.0488 9.38229 15.1 9.12545 15.1C8.8686 15.1 8.61428 15.0488 8.377 14.9493C8.13972 14.8498 7.92414 14.7039 7.74258 14.52L2.16575 8.87529C1.9842 8.69152 1.84019 8.47335 1.74194 8.23325C1.64369 7.99314 1.59313 7.7358 1.59314 7.47592V3.77021C1.59314 3.24536 1.79913 2.74201 2.16579 2.37088C2.53245 1.99976 3.02975 1.79126 3.54828 1.79126H7.20942ZM7.20942 3.12209H3.54828C3.37846 3.12209 3.21559 3.19038 3.09551 3.31192C2.97543 3.43347 2.90796 3.59832 2.90796 3.77021V7.47592C2.90796 7.64759 2.97568 7.81262 3.09533 7.93439L8.67216 13.5791C8.92198 13.832 9.32826 13.832 9.57807 13.5791L13.2392 9.87341C13.2987 9.81322 13.3459 9.74175 13.3781 9.66308C13.4104 9.58442 13.4269 9.5001 13.4269 9.41494C13.4269 9.32978 13.4104 9.24546 13.3781 9.1668C13.3459 9.08813 13.2987 9.01666 13.2392 8.95647L7.66237 3.31174C7.6028 3.25149 7.53207 3.20372 7.45423 3.17118C7.37639 3.13864 7.29297 3.12196 7.20876 3.12209H7.20942ZM5.53762 4.45293C5.88633 4.45293 6.22076 4.59314 6.46734 4.84272C6.71391 5.0923 6.85244 5.4308 6.85244 5.78376C6.85244 6.13672 6.71391 6.47522 6.46734 6.7248C6.22076 6.97438 5.88633 7.11459 5.53762 7.11459C5.1889 7.11459 4.85447 6.97438 4.60789 6.7248C4.36132 6.47522 4.22279 6.13672 4.22279 5.78376C4.22279 5.4308 4.36132 5.0923 4.60789 4.84272C4.85447 4.59314 5.1889 4.45293 5.53762 4.45293V4.45293Z" fill="#7AC751"/>
</svg>
