<svg width="17" height="17" viewBox="0 0 17 17" fill="none" xmlns="http://www.w3.org/2000/svg">
<path fill-rule="evenodd" clip-rule="evenodd" d="M7.20945 1.79126C7.72815 1.79126 8.22515 1.99954 8.59199 2.37084L14.1688 8.01557C14.3505 8.19935 14.4946 8.41755 14.5929 8.65772C14.6912 8.89788 14.7418 9.1553 14.7418 9.41527C14.7418 9.67524 14.6912 9.93266 14.5929 10.1728C14.4946 10.413 14.3505 10.6312 14.1688 10.815L10.5083 14.52C10.3268 14.7039 10.1112 14.8498 9.87392 14.9493C9.63664 15.0488 9.38232 15.1 9.12548 15.1C8.86863 15.1 8.61431 15.0488 8.37703 14.9493C8.13975 14.8498 7.92417 14.7039 7.74261 14.52L2.16578 8.87529C1.98423 8.69152 1.84022 8.47335 1.74197 8.23325C1.64372 7.99314 1.59316 7.7358 1.59317 7.47592V3.77021C1.59317 3.24536 1.79916 2.74201 2.16582 2.37088C2.53248 1.99976 3.02978 1.79126 3.54832 1.79126H7.20945ZM7.20945 3.12209H3.54832C3.37849 3.12209 3.21562 3.19038 3.09554 3.31192C2.97546 3.43347 2.908 3.59832 2.908 3.77021V7.47592C2.908 7.64759 2.97571 7.81262 3.09536 7.93439L8.67219 13.5791C8.92201 13.832 9.32829 13.832 9.5781 13.5791L13.2392 9.87341C13.2987 9.81322 13.346 9.74175 13.3782 9.66308C13.4104 9.58442 13.427 9.5001 13.427 9.41494C13.427 9.32978 13.4104 9.24546 13.3782 9.1668C13.346 9.08813 13.2987 9.01666 13.2392 8.95647L7.6624 3.31174C7.60283 3.25149 7.5321 3.20372 7.45426 3.17118C7.37642 3.13864 7.29301 3.12196 7.20879 3.12209H7.20945ZM5.53765 4.45293C5.88636 4.45293 6.22079 4.59314 6.46737 4.84272C6.71395 5.0923 6.85247 5.4308 6.85247 5.78376C6.85247 6.13672 6.71395 6.47522 6.46737 6.7248C6.22079 6.97438 5.88636 7.11459 5.53765 7.11459C5.18893 7.11459 4.8545 6.97438 4.60792 6.7248C4.36135 6.47522 4.22282 6.13672 4.22282 5.78376C4.22282 5.4308 4.36135 5.0923 4.60792 4.84272C4.8545 4.59314 5.18893 4.45293 5.53765 4.45293V4.45293Z" fill="#7AC751"/>
</svg>
