<svg width="17" height="17" viewBox="0 0 17 17" fill="none" xmlns="http://www.w3.org/2000/svg">
<path fill-rule="evenodd" clip-rule="evenodd" d="M7.18213 1.46509C7.70083 1.46509 8.19784 1.67336 8.56467 2.04467L14.1415 7.6894C14.3232 7.87317 14.4673 8.09138 14.5656 8.33154C14.6639 8.57171 14.7145 8.82913 14.7145 9.0891C14.7145 9.34907 14.6639 9.60649 14.5656 9.84666C14.4673 10.0868 14.3232 10.305 14.1415 10.4888L10.481 14.1938C10.2995 14.3777 10.0839 14.5236 9.84661 14.6231C9.60933 14.7226 9.355 14.7738 9.09816 14.7738C8.84132 14.7738 8.587 14.7226 8.34972 14.6231C8.11244 14.5236 7.89686 14.3777 7.71529 14.1938L2.13846 8.54912C1.95691 8.36534 1.8129 8.14718 1.71466 7.90707C1.61641 7.66697 1.56585 7.40963 1.56586 7.14974V3.44404C1.56586 2.91919 1.77184 2.41583 2.13851 2.04471C2.50517 1.67358 3.00247 1.46509 3.521 1.46509H7.18213ZM7.18213 2.79592H3.521C3.35118 2.79592 3.18831 2.8642 3.06823 2.98575C2.94814 3.1073 2.88068 3.27215 2.88068 3.44404V7.14974C2.88068 7.32142 2.9484 7.48645 3.06804 7.60822L8.64488 13.2529C8.89469 13.5058 9.30097 13.5058 9.55079 13.2529L13.2119 9.54724C13.2714 9.48705 13.3186 9.41558 13.3509 9.33691C13.3831 9.25825 13.3997 9.17392 13.3997 9.08877C13.3997 9.00361 13.3831 8.91929 13.3509 8.84062C13.3186 8.76196 13.2714 8.69049 13.2119 8.6303L7.63509 2.98557C7.57552 2.92531 7.50478 2.87755 7.42695 2.84501C7.34911 2.81247 7.26569 2.79579 7.18148 2.79592H7.18213ZM5.51033 4.12676C5.85905 4.12676 6.19348 4.26697 6.44005 4.51655C6.68663 4.76613 6.82516 5.10463 6.82516 5.45759C6.82516 5.81055 6.68663 6.14905 6.44005 6.39863C6.19348 6.64821 5.85905 6.78842 5.51033 6.78842C5.16162 6.78842 4.82719 6.64821 4.58061 6.39863C4.33403 6.14905 4.19551 5.81055 4.19551 5.45759C4.19551 5.10463 4.33403 4.76613 4.58061 4.51655C4.82719 4.26697 5.16162 4.12676 5.51033 4.12676V4.12676Z" fill="#7AC751"/>
</svg>
