<svg width="14" height="18" viewBox="0 0 14 18" fill="none" xmlns="http://www.w3.org/2000/svg">
<path d="M0.921168 6.92662C0.921168 6.19391 1.04925 5.5017 1.30165 4.85564C1.54279 4.22813 1.90107 3.6522 2.35739 3.15855C2.81277 2.67137 3.33389 2.25011 3.90568 1.90692C4.49233 1.55201 5.12745 1.28426 5.79112 1.11206C6.46281 0.935681 7.15446 0.846733 7.84892 0.847416C8.92161 0.847416 9.91989 1.07439 10.8457 1.52644C11.7594 1.97025 12.537 2.65135 13.0975 3.49853C13.6757 4.36026 13.963 5.33501 13.963 6.42182C13.963 7.07353 13.8989 7.71112 13.768 8.33458C13.6395 8.95769 13.4352 9.56273 13.1596 10.1362C12.897 10.6913 12.5536 11.2045 12.1406 11.6591C11.7256 12.1064 11.2229 12.4635 10.6639 12.7082C10.057 12.9742 9.40052 13.1081 8.73796 13.1009C8.27743 13.1009 7.81784 12.9926 7.3639 12.7751C6.90996 12.5585 6.5841 12.2609 6.38821 11.8794C6.31946 12.1441 6.22528 12.5265 6.10003 13.0265C5.97948 13.5257 5.89849 13.8478 5.8627 13.9937C5.82503 14.1388 5.75533 14.3808 5.65362 14.7161C5.58464 14.9641 5.49615 15.2063 5.38898 15.4403L5.06501 16.0751C4.9249 16.3475 4.76827 16.611 4.596 16.8643C4.42554 17.111 4.21458 17.4058 3.96312 17.7449L3.8228 17.7948L3.72956 17.6931C3.62879 16.626 3.57699 15.9875 3.57699 15.7765C3.57699 15.1521 3.65139 14.4515 3.79831 13.6735C3.9424 12.8966 4.17032 11.9199 4.4764 10.7455C4.78247 9.57208 4.95765 8.88176 5.00473 8.67739C4.78907 8.23758 4.67982 7.66309 4.67982 6.95675C4.67982 6.39263 4.85593 5.86429 5.2091 5.36703C5.56321 4.87165 6.01056 4.62396 6.55302 4.62396C6.96835 4.62396 7.29044 4.76146 7.52118 5.0374C7.75285 5.3124 7.86587 5.65898 7.86587 6.08184C7.86587 6.53013 7.71707 7.17902 7.41758 8.02756C7.11809 8.87705 6.96929 9.51087 6.96929 9.93184C6.96929 10.3585 7.12186 10.7154 7.427 10.9951C7.72813 11.275 8.12636 11.4266 8.53736 11.418C8.9103 11.418 9.25594 11.3332 9.57709 11.1628C9.89321 10.9973 10.1668 10.761 10.3767 10.4724C10.8336 9.84548 11.1594 9.13277 11.3345 8.37696C11.4249 7.97953 11.4946 7.60187 11.5379 7.24682C11.584 6.88989 11.6038 6.55273 11.6038 6.23252C11.6038 5.05812 11.2309 4.14271 10.4897 3.48723C9.74472 2.83175 8.77469 2.50589 7.58145 2.50589C6.22434 2.50589 5.08949 2.94476 4.18068 3.82533C3.27091 4.70307 2.81321 5.81908 2.81321 7.17242C2.81321 7.47097 2.85841 7.75915 2.94412 8.03792C3.02793 8.31575 3.11929 8.53706 3.21817 8.70093C3.31612 8.86198 3.40841 9.01926 3.49223 9.16429C3.57699 9.30933 3.62126 9.41292 3.62126 9.47508C3.62126 9.66532 3.57134 9.91301 3.47057 10.2191C3.36603 10.5252 3.24266 10.6777 3.09386 10.6777C3.07973 10.6777 3.02134 10.6674 2.91963 10.6457C2.56737 10.5405 2.24925 10.344 1.99762 10.0759C1.73057 9.79816 1.51982 9.47131 1.37699 9.11344C1.23457 8.75683 1.12365 8.38844 1.04548 8.01249C0.961035 7.65676 0.919302 7.29223 0.921168 6.92662V6.92662Z" fill="#555555"/>
</svg>
