<svg width="18" height="15" viewBox="0 0 18 15" fill="none" xmlns="http://www.w3.org/2000/svg">
<path d="M17.7737 2.17796C17.1505 2.4468 16.4723 2.64029 15.7737 2.71565C16.499 2.28475 17.0421 1.60402 17.3012 0.80115C16.6206 1.20602 15.875 1.48993 15.0975 1.64027C14.7725 1.29286 14.3795 1.0161 13.9429 0.827235C13.5063 0.638367 13.0355 0.541438 12.5598 0.542489C10.6351 0.542489 9.08719 2.1026 9.08719 4.0171C9.08719 4.28594 9.11978 4.55479 9.17273 4.81345C6.2908 4.66273 3.72049 3.28592 2.0117 1.17794C1.70034 1.70975 1.53718 2.31528 1.53918 2.93154C1.53918 4.13726 2.15223 5.20042 3.08707 5.82569C2.53616 5.80399 1.99814 5.65256 1.51678 5.38372V5.42649C1.51678 7.11491 2.71029 8.51413 4.30095 8.83593C4.00228 8.9135 3.69504 8.95319 3.38647 8.95405C3.1604 8.95405 2.94654 8.93165 2.73065 8.9011C3.17058 10.2779 4.45166 11.2779 5.97715 11.3105C4.78364 12.2454 3.28871 12.7953 1.66546 12.7953C1.37421 12.7953 1.10537 12.7851 0.82634 12.7525C2.36608 13.7403 4.193 14.3106 6.16045 14.3106C12.5475 14.3106 16.0425 9.01923 16.0425 4.42647C16.0425 4.27576 16.0425 4.12504 16.0323 3.97433C16.7085 3.47941 17.3012 2.86636 17.7737 2.17796Z" fill="#555555"/>
</svg>
