<svg width="68" height="11" viewBox="0 0 68 11" fill="none" xmlns="http://www.w3.org/2000/svg">
<path d="M18.9328 0.785469L17.6479 3.26301L14.7729 3.66159C14.2573 3.73269 14.0507 4.33711 14.4246 4.68329L16.5045 6.61068L16.0126 9.33336C15.924 9.8255 16.4691 10.1941 16.9257 9.96397L19.4976 8.67842L22.0695 9.96397C22.5261 10.1923 23.0712 9.8255 22.9826 9.33336L22.4907 6.61068L24.5706 4.68329C24.9445 4.33711 24.7379 3.73269 24.2223 3.66159L21.3474 3.26301L20.0624 0.785469C19.8321 0.343853 19.165 0.338239 18.9328 0.785469Z" fill="white"/>
<path d="M4.82868 0.785713L3.5437 3.26325L0.668709 3.66183C0.15314 3.73294 -0.0534814 4.33735 0.320405 4.68354L2.40039 6.61093L1.90844 9.3336C1.81988 9.82574 2.36497 10.1944 2.82151 9.96421L5.39345 8.67866L7.96539 9.96421C8.42193 10.1925 8.96701 9.82574 8.87846 9.3336L8.3865 6.61093L10.4665 4.68354C10.8404 4.33735 10.6338 3.73294 10.1182 3.66183L7.2432 3.26325L5.95821 0.785713C5.72798 0.344097 5.06089 0.338483 4.82868 0.785713Z" fill="white"/>
<path d="M33.0364 0.785469L31.7514 3.26301L28.8764 3.66159C28.3609 3.73269 28.1543 4.33711 28.5281 4.68329L30.6081 6.61068L30.1162 9.33336C30.0276 9.8255 30.5727 10.1941 31.0292 9.96397L33.6012 8.67842L36.1731 9.96397C36.6297 10.1923 37.1747 9.8255 37.0862 9.33336L36.5942 6.61068L38.6742 4.68329C39.0481 4.33711 38.8415 3.73269 38.3259 3.66159L35.4509 3.26301L34.1659 0.785469C33.9357 0.343853 33.2686 0.338239 33.0364 0.785469Z" fill="white"/>
<path d="M47.141 0.785469L45.856 3.26301L42.981 3.66159C42.4654 3.73269 42.2588 4.33711 42.6327 4.68329L44.7127 6.61068L44.2207 9.33336C44.1322 9.8255 44.6773 10.1941 45.1338 9.96397L47.7057 8.67842L50.2777 9.96397C50.7342 10.1923 51.2793 9.8255 51.1907 9.33336L50.6988 6.61068L52.7788 4.68329C53.1527 4.33711 52.946 3.73269 52.4305 3.66159L49.5555 3.26301L48.2705 0.785469C48.0403 0.343853 47.3732 0.338239 47.141 0.785469Z" fill="white"/>
<path d="M61.2455 0.785469L59.9605 3.26301L57.0855 3.66159C56.57 3.73269 56.3634 4.33711 56.7372 4.68329L58.8172 6.61068L58.3253 9.33336C58.2367 9.8255 58.7818 10.1941 59.2383 9.96397L61.8103 8.67842L64.3822 9.96397C64.8388 10.1923 65.3839 9.8255 65.2953 9.33336L64.8033 6.61068L66.8833 4.68329C67.2572 4.33711 67.0506 3.73269 66.535 3.66159L63.66 3.26301L62.3751 0.785469C62.1448 0.343853 61.4777 0.338239 61.2455 0.785469Z" fill="white"/>
</svg>
